<?xml version="1.0" encoding="UTF-8" ?>
<!DOCTYPE svg PUBLIC "-//W3C//DTD SVG 1.1//EN" "http://www.w3.org/Graphics/SVG/1.1/DTD/svg11.dtd">
<svg width="730pt" height="335pt" viewBox="0 0 730 335" version="1.1" xmlns="http://www.w3.org/2000/svg">
<g id="#3d9dd3ff">
<path fill="#3d9dd3" opacity="1.00" d=" M 0.00 0.00 L 730.00 0.00 L 730.00 335.00 L 0.00 335.00 L 0.00 0.00 M 282.77 77.96 C 282.71 104.90 282.77 131.84 282.75 158.79 C 257.51 158.82 232.27 158.76 207.03 158.82 C 203.16 158.50 199.95 162.14 200.41 165.91 C 200.43 196.53 200.38 227.14 200.44 257.76 C 194.22 257.85 187.98 257.50 181.77 258.00 C 184.12 261.33 188.32 262.20 192.04 263.10 C 197.94 264.49 204.04 264.09 210.05 264.13 C 251.73 264.14 293.41 264.11 335.08 264.14 C 340.52 264.10 346.01 263.28 351.06 261.21 C 352.61 260.51 354.48 259.67 354.76 257.76 C 348.65 257.74 342.54 257.75 336.43 257.76 C 336.56 241.88 336.51 225.99 336.45 210.11 C 348.35 209.76 360.28 209.79 372.18 210.12 C 372.17 218.75 372.41 227.40 372.10 236.03 L 371.75 236.45 C 362.52 236.87 353.24 236.14 344.02 236.77 C 341.42 239.14 343.10 243.32 342.57 246.46 C 375.89 246.78 409.22 246.52 442.55 246.59 C 442.53 243.67 442.81 240.70 442.30 237.81 C 441.08 236.07 438.80 236.69 437.01 236.52 C 429.07 236.59 421.13 236.49 413.19 236.59 C 412.93 234.41 412.69 232.22 412.78 230.02 C 413.19 223.38 412.50 216.73 413.25 210.11 C 430.26 209.70 447.30 210.01 464.32 209.91 C 464.42 222.99 464.26 236.06 464.39 249.13 C 464.25 252.64 467.60 255.60 471.05 255.30 C 486.45 255.33 501.85 255.36 517.25 255.27 C 517.28 258.37 517.13 262.95 521.00 263.82 C 528.30 264.50 535.70 264.02 543.03 264.09 C 545.90 264.32 548.77 262.05 548.59 259.05 C 548.68 241.68 548.63 224.30 548.61 206.93 C 548.82 204.32 546.73 201.72 544.04 201.71 C 540.42 201.47 536.78 201.67 533.16 201.63 C 533.07 186.74 533.27 171.85 533.08 156.96 C 533.19 153.63 530.46 150.47 527.06 150.52 C 518.86 150.33 510.66 150.51 502.47 150.45 C 502.39 126.32 502.49 102.19 502.43 78.07 C 502.76 74.51 499.57 71.21 496.01 71.45 C 427.34 71.38 358.66 71.44 289.98 71.42 C 286.21 70.91 282.48 74.06 282.77 77.96 Z" />
<path fill="#3d9dd3" opacity="1.00" d=" M 300.23 89.18 C 361.79 89.16 423.35 89.18 484.91 89.17 C 484.93 95.00 484.94 100.83 484.91 106.67 C 423.35 106.65 361.80 106.67 300.24 106.66 C 300.22 100.83 300.23 95.00 300.23 89.18 Z" />
<path fill="#3d9dd3" opacity="1.00" d=" M 300.23 115.36 C 311.44 115.36 322.66 115.36 333.87 115.36 C 333.88 118.28 333.88 121.21 333.87 124.14 C 322.66 124.14 311.45 124.14 300.23 124.14 C 300.21 121.21 300.22 118.28 300.23 115.36 Z" />
<path fill="#3d9dd3" opacity="1.00" d=" M 342.57 115.47 C 375.90 115.22 409.23 115.42 442.56 115.36 C 442.57 118.29 442.56 121.21 442.56 124.14 C 409.26 124.14 375.96 124.14 342.67 124.14 C 342.64 121.25 342.62 118.36 342.57 115.47 Z" />
<path fill="#3d9dd3" opacity="1.00" d=" M 451.27 115.36 C 462.50 115.35 473.73 115.37 484.95 115.35 C 484.97 118.28 484.98 121.21 484.93 124.14 C 473.71 124.14 462.49 124.14 451.27 124.14 C 451.26 121.21 451.26 118.29 451.27 115.36 Z" />
<path fill="#3d9dd3" opacity="1.00" d=" M 268.00 162.48 C 271.35 162.52 266.54 165.47 268.00 162.48 Z" />
<path fill="#3d9dd3" opacity="1.00" d=" M 342.64 167.76 C 375.92 167.70 409.19 167.82 442.46 167.70 C 442.57 170.65 442.60 173.61 442.58 176.56 L 442.29 176.56 C 409.07 176.55 375.86 176.54 342.65 176.57 C 342.63 173.63 342.63 170.70 342.64 167.76 Z" />
<path fill="#3d9dd3" opacity="1.00" d=" M 474.90 169.19 C 490.73 169.06 506.57 169.17 522.41 169.13 C 522.44 174.14 522.45 179.16 522.38 184.17 C 506.63 184.18 490.88 184.16 475.14 184.18 C 474.73 179.19 474.92 174.19 474.90 169.19 Z" />
<path fill="#3d9dd3" opacity="1.00" d=" M 214.11 172.62 C 250.28 172.37 286.45 172.69 322.61 172.46 C 322.74 175.82 322.77 179.18 322.71 182.54 C 286.54 182.54 250.36 182.54 214.19 182.54 C 214.19 179.24 214.17 175.93 214.11 172.62 Z" />
<path fill="#3d9dd3" opacity="1.00" d=" M 214.17 187.84 C 220.83 187.83 227.49 187.83 234.14 187.84 C 234.14 189.61 234.14 191.38 234.14 193.15 C 227.49 193.15 220.84 193.14 214.19 193.16 C 214.17 191.39 214.17 189.61 214.17 187.84 Z" />
<path fill="#3d9dd3" opacity="1.00" d=" M 240.27 187.94 C 257.51 187.68 274.75 187.95 291.99 187.80 C 293.46 187.97 295.19 187.46 296.49 188.25 C 296.63 189.88 296.58 191.51 296.57 193.15 C 277.88 193.20 259.19 193.04 240.49 193.23 C 240.42 191.46 240.33 189.70 240.27 187.94 Z" />
<path fill="#3d9dd3" opacity="1.00" d=" M 302.76 187.84 C 309.41 187.84 316.07 187.80 322.73 187.87 C 322.72 189.63 322.72 191.39 322.71 193.16 C 316.06 193.14 309.41 193.15 302.76 193.15 C 302.75 191.38 302.75 189.61 302.76 187.84 Z" />
<path fill="#3d9dd3" opacity="1.00" d=" M 475.00 189.10 C 479.98 189.03 484.97 189.03 489.95 189.10 C 489.92 189.72 489.86 190.97 489.82 191.59 C 484.92 191.54 480.03 191.54 475.13 191.59 C 475.10 190.97 475.04 189.72 475.00 189.10 Z" />
<path fill="#3d9dd3" opacity="1.00" d=" M 494.87 189.07 C 504.03 189.05 513.20 189.05 522.36 189.06 C 522.38 189.69 522.40 190.95 522.42 191.58 C 513.23 191.55 504.05 191.55 494.87 191.58 C 494.87 190.95 494.87 189.70 494.87 189.07 Z" />
<path fill="#3d9dd3" opacity="1.00" d=" M 529.30 206.54 C 530.61 205.83 532.41 205.84 533.74 206.53 C 533.45 207.93 529.62 207.91 529.30 206.54 Z" />
<path fill="#3d9dd3" opacity="1.00" d=" M 536.30 206.31 C 536.77 206.83 536.77 206.83 536.30 206.31 Z" />
<path fill="#3d9dd3" opacity="1.00" d=" M 521.20 212.25 C 529.08 212.25 536.95 212.25 544.83 212.25 C 544.81 214.33 544.81 216.41 544.81 218.50 C 536.94 218.49 529.08 218.49 521.22 218.50 C 521.21 216.41 521.20 214.33 521.20 212.25 Z" />
<path fill="#3d9dd3" opacity="1.00" d=" M 494.88 215.28 C 502.39 215.27 509.89 215.28 517.41 215.28 C 517.40 215.90 517.40 217.15 517.40 217.77 C 509.89 217.77 502.38 217.76 494.87 217.77 C 494.87 217.15 494.88 215.90 494.88 215.28 Z" />
<path fill="#3d9dd3" opacity="1.00" d=" M 240.34 226.82 C 240.36 225.06 240.38 223.31 240.40 221.55 C 259.12 221.61 277.84 221.55 296.57 221.58 C 296.56 223.33 296.56 225.07 296.55 226.82 C 277.82 226.81 259.08 226.80 240.34 226.82 Z" />
<path fill="#3d9dd3" opacity="1.00" d=" M 521.18 222.21 C 529.07 222.18 536.96 222.17 544.86 222.21 C 544.86 222.85 544.85 224.11 544.84 224.75 C 536.95 224.72 529.06 224.73 521.17 224.74 C 521.17 224.11 521.18 222.84 521.18 222.21 Z" />
<path fill="#3d9dd3" opacity="1.00" d=" M 521.22 238.43 C 529.08 238.43 536.94 238.44 544.80 238.43 C 544.82 239.03 544.88 240.24 544.90 240.84 C 536.97 240.86 529.05 240.85 521.12 240.85 C 521.15 240.24 521.20 239.04 521.22 238.43 Z" />
</g>
<g id="#333333ff">
<path fill="#333333" opacity="1.00" d=" M 282.77 77.96 C 282.48 74.06 286.21 70.91 289.98 71.42 C 358.66 71.44 427.34 71.38 496.01 71.45 C 499.57 71.21 502.76 74.51 502.43 78.07 C 502.49 102.19 502.39 126.32 502.47 150.45 C 510.66 150.51 518.86 150.33 527.06 150.52 C 530.46 150.47 533.19 153.63 533.08 156.96 C 533.27 171.85 533.07 186.74 533.16 201.63 C 536.78 201.67 540.42 201.47 544.04 201.71 C 546.73 201.72 548.82 204.32 548.61 206.93 C 548.63 224.30 548.68 241.68 548.59 259.05 C 548.77 262.05 545.90 264.32 543.03 264.09 C 535.70 264.02 528.30 264.50 521.00 263.82 C 517.13 262.95 517.28 258.37 517.25 255.27 C 501.85 255.36 486.45 255.33 471.05 255.30 C 467.60 255.60 464.25 252.64 464.39 249.13 C 464.26 236.06 464.42 222.99 464.32 209.91 C 447.30 210.01 430.26 209.70 413.25 210.11 C 399.56 210.28 385.86 210.27 372.18 210.12 C 360.28 209.79 348.35 209.76 336.45 210.11 C 336.51 225.99 336.56 241.88 336.43 257.76 C 291.10 257.74 245.77 257.75 200.44 257.76 C 200.38 227.14 200.43 196.53 200.41 165.91 C 199.95 162.14 203.16 158.50 207.03 158.82 C 232.27 158.76 257.51 158.82 282.75 158.79 C 282.77 131.84 282.71 104.90 282.77 77.96 M 292.59 81.38 C 292.59 107.19 292.58 132.99 292.60 158.80 C 295.12 158.79 297.64 158.79 300.17 158.80 C 309.44 158.80 318.71 158.82 327.98 158.77 C 330.00 158.72 331.98 159.16 333.93 159.64 C 335.09 161.23 336.59 162.85 336.45 164.98 C 336.56 174.59 336.45 184.20 336.49 193.81 C 379.11 193.83 421.73 193.81 464.35 193.82 C 464.35 190.92 464.35 188.03 464.35 185.14 C 464.40 175.72 464.30 166.29 464.38 156.87 C 464.21 153.68 466.88 150.61 470.11 150.53 C 475.02 150.30 479.93 150.53 484.85 150.44 C 487.41 150.44 489.98 150.45 492.55 150.45 C 492.57 127.42 492.55 104.40 492.55 81.37 C 425.90 81.37 359.24 81.34 292.59 81.38 M 498.30 156.27 C 498.78 156.83 498.78 156.83 498.30 156.27 M 268.00 162.48 C 266.54 165.47 271.35 162.52 268.00 162.48 M 468.13 163.22 C 468.12 189.68 468.11 216.14 468.13 242.60 C 484.56 242.58 500.98 242.61 517.41 242.58 C 517.39 240.50 517.40 238.42 517.40 236.34 C 517.41 230.15 517.40 223.96 517.40 217.77 C 517.40 217.15 517.40 215.90 517.41 215.28 C 517.39 213.58 517.38 211.88 517.36 210.18 C 516.99 206.75 517.61 202.97 521.19 201.54 C 523.92 201.64 526.66 201.64 529.40 201.61 C 529.37 188.81 529.43 176.01 529.37 163.22 C 508.95 163.22 488.54 163.21 468.13 163.22 M 209.16 167.51 C 209.18 196.38 209.15 225.24 209.18 254.11 C 248.73 254.12 288.29 254.12 327.85 254.11 C 327.89 225.24 327.85 196.38 327.88 167.51 C 288.31 167.50 248.73 167.50 209.16 167.51 M 529.30 206.54 C 529.62 207.91 533.45 207.93 533.74 206.53 C 532.41 205.84 530.61 205.83 529.30 206.54 M 536.30 206.31 C 536.77 206.83 536.77 206.83 536.30 206.31 M 520.40 211.06 C 520.43 225.57 520.40 240.08 520.40 254.60 C 528.81 254.59 537.23 254.60 545.64 254.60 C 545.65 240.08 545.61 225.57 545.64 211.05 C 537.22 211.06 528.81 211.04 520.40 211.06 Z" />
</g>
<g id="#e7e8e8ff">
<path fill="#e7e8e8" opacity="1.00" d=" M 292.59 81.38 C 359.24 81.34 425.90 81.37 492.55 81.37 C 492.55 104.40 492.57 127.42 492.55 150.45 C 489.98 150.45 487.41 150.44 484.85 150.44 C 484.92 141.68 484.83 132.91 484.93 124.14 C 484.98 121.21 484.97 118.28 484.95 115.35 C 473.73 115.37 462.50 115.35 451.27 115.36 C 451.26 118.29 451.26 121.21 451.27 124.14 C 451.31 144.45 451.26 164.77 451.30 185.08 C 455.64 185.33 460.00 185.35 464.35 185.14 C 464.35 188.03 464.35 190.92 464.35 193.82 C 421.73 193.81 379.11 193.83 336.49 193.81 C 336.45 184.20 336.56 174.59 336.45 164.98 C 336.59 162.85 335.09 161.23 333.93 159.64 C 333.78 147.81 333.90 135.97 333.87 124.14 C 333.88 121.21 333.88 118.28 333.87 115.36 C 322.66 115.36 311.44 115.36 300.23 115.36 C 300.22 118.28 300.21 121.21 300.23 124.14 C 300.24 135.69 300.36 147.25 300.17 158.80 C 297.64 158.79 295.12 158.79 292.60 158.80 C 292.58 132.99 292.59 107.19 292.59 81.38 M 300.23 89.18 C 300.23 95.00 300.22 100.83 300.24 106.66 C 361.80 106.67 423.35 106.65 484.91 106.67 C 484.94 100.83 484.93 95.00 484.91 89.17 C 423.35 89.18 361.79 89.16 300.23 89.18 M 342.57 115.47 C 342.62 118.36 342.64 121.25 342.67 124.14 C 342.80 135.75 342.46 147.37 342.85 158.98 C 373.56 159.35 404.29 158.97 435.00 159.17 C 437.54 159.23 440.07 159.04 442.60 158.81 C 442.53 147.26 442.63 135.70 442.56 124.14 C 442.56 121.21 442.57 118.29 442.56 115.36 C 409.23 115.42 375.90 115.22 342.57 115.47 M 342.64 167.76 C 342.63 170.70 342.63 173.63 342.65 176.57 C 342.64 179.44 342.69 182.32 342.82 185.19 C 376.00 185.27 409.19 185.44 442.36 185.11 C 442.55 182.26 442.52 179.40 442.29 176.56 L 442.58 176.56 C 442.60 173.61 442.57 170.65 442.46 167.70 C 409.19 167.82 375.92 167.70 342.64 167.76 Z" />
<path fill="#e7e8e8" opacity="1.00" d=" M 468.13 163.22 C 488.54 163.21 508.95 163.22 529.37 163.22 C 529.43 176.01 529.37 188.81 529.40 201.61 C 526.66 201.64 523.92 201.64 521.19 201.54 C 522.83 198.48 522.37 194.91 522.42 191.58 C 522.40 190.95 522.38 189.69 522.36 189.06 C 513.20 189.05 504.03 189.05 494.87 189.07 C 494.87 189.70 494.87 190.95 494.87 191.58 C 494.86 197.77 494.78 203.97 495.00 210.17 C 502.45 210.41 509.90 210.29 517.36 210.18 C 517.38 211.88 517.39 213.58 517.41 215.28 C 509.89 215.28 502.39 215.27 494.88 215.28 C 494.88 215.90 494.87 217.15 494.87 217.77 C 494.85 223.93 494.80 230.08 495.03 236.24 C 502.48 236.61 509.94 236.45 517.40 236.34 C 517.40 238.42 517.39 240.50 517.41 242.58 C 500.98 242.61 484.56 242.58 468.13 242.60 C 468.11 216.14 468.12 189.68 468.13 163.22 M 474.90 169.19 C 474.92 174.19 474.73 179.19 475.14 184.18 C 490.88 184.16 506.63 184.18 522.38 184.17 C 522.45 179.16 522.44 174.14 522.41 169.13 C 506.57 169.17 490.73 169.06 474.90 169.19 M 475.00 189.10 C 475.04 189.72 475.10 190.97 475.13 191.59 C 475.13 206.46 474.98 221.33 475.11 236.20 C 480.03 236.54 484.99 236.68 489.91 236.15 C 489.79 221.30 489.95 206.45 489.82 191.59 C 489.86 190.97 489.92 189.72 489.95 189.10 C 484.97 189.03 479.98 189.03 475.00 189.10 Z" />
<path fill="#e7e8e8" opacity="1.00" d=" M 209.16 167.51 C 248.73 167.50 288.31 167.50 327.88 167.51 C 327.85 196.38 327.89 225.24 327.85 254.11 C 288.29 254.12 248.73 254.12 209.18 254.11 C 209.15 225.24 209.18 196.38 209.16 167.51 M 214.11 172.62 C 214.17 175.93 214.19 179.24 214.19 182.54 C 250.36 182.54 286.54 182.54 322.71 182.54 C 322.77 179.18 322.74 175.82 322.61 172.46 C 286.45 172.69 250.28 172.37 214.11 172.62 M 214.17 187.84 C 214.17 189.61 214.17 191.39 214.19 193.16 C 214.23 211.74 214.12 230.33 214.25 248.91 C 220.81 249.25 227.40 249.21 233.97 248.95 C 234.36 230.36 234.03 211.75 234.14 193.15 C 234.14 191.38 234.14 189.61 234.14 187.84 C 227.49 187.83 220.83 187.83 214.17 187.84 M 240.27 187.94 C 240.33 189.70 240.42 191.46 240.49 193.23 C 240.48 200.55 240.28 207.88 240.63 215.20 C 253.74 215.56 266.87 215.25 279.98 215.34 C 285.55 215.21 291.14 215.77 296.67 214.92 C 296.51 207.66 296.61 200.41 296.57 193.15 C 296.58 191.51 296.63 189.88 296.49 188.25 C 295.19 187.46 293.46 187.97 291.99 187.80 C 274.75 187.95 257.51 187.68 240.27 187.94 M 302.76 187.84 C 302.75 189.61 302.75 191.38 302.76 193.15 C 302.94 211.75 302.53 230.36 302.97 248.96 C 309.55 249.22 316.15 249.31 322.72 248.84 C 322.70 230.28 322.73 211.72 322.71 193.16 C 322.72 191.39 322.72 189.63 322.73 187.87 C 316.07 187.80 309.41 187.84 302.76 187.84 M 240.34 226.82 C 240.36 234.17 240.35 241.51 240.34 248.86 C 247.53 249.43 254.75 249.00 261.95 249.13 C 273.50 248.90 285.07 249.54 296.60 248.82 C 296.56 241.49 296.62 234.15 296.55 226.82 C 296.56 225.07 296.56 223.33 296.57 221.58 C 277.84 221.55 259.12 221.61 240.40 221.55 C 240.38 223.31 240.36 225.06 240.34 226.82 Z" />
<path fill="#e7e8e8" opacity="1.00" d=" M 520.40 211.06 C 528.81 211.04 537.22 211.06 545.64 211.05 C 545.61 225.57 545.65 240.08 545.64 254.60 C 537.23 254.60 528.81 254.59 520.40 254.60 C 520.40 240.08 520.43 225.57 520.40 211.06 M 521.20 212.25 C 521.20 214.33 521.21 216.41 521.22 218.50 C 529.08 218.49 536.94 218.49 544.81 218.50 C 544.81 216.41 544.81 214.33 544.83 212.25 C 536.95 212.25 529.08 212.25 521.20 212.25 M 521.18 222.21 C 521.18 222.84 521.17 224.11 521.17 224.74 C 520.99 228.05 521.03 231.37 521.27 234.69 C 529.14 234.69 537.01 234.69 544.88 234.67 C 545.14 231.37 545.14 228.05 544.84 224.75 C 544.85 224.11 544.86 222.85 544.86 222.21 C 536.96 222.17 529.07 222.18 521.18 222.21 M 521.22 238.43 C 521.20 239.04 521.15 240.24 521.12 240.85 C 521.00 244.18 521.05 247.51 521.25 250.84 C 529.12 251.03 537.00 250.83 544.88 250.81 C 545.11 247.49 545.12 244.16 544.90 240.84 C 544.88 240.24 544.82 239.03 544.80 238.43 C 536.94 238.44 529.08 238.43 521.22 238.43 Z" />
</g>
<g id="#cacacaff">
<path fill="#cacaca" opacity="1.00" d=" M 300.23 124.14 C 311.45 124.14 322.66 124.14 333.87 124.14 C 333.90 135.97 333.78 147.81 333.93 159.64 C 331.98 159.16 330.00 158.72 327.98 158.77 C 318.71 158.82 309.44 158.80 300.17 158.80 C 300.36 147.25 300.24 135.69 300.23 124.14 Z" />
<path fill="#cacaca" opacity="1.00" d=" M 342.67 124.14 C 375.96 124.14 409.26 124.14 442.56 124.14 C 442.63 135.70 442.53 147.26 442.60 158.81 C 440.07 159.04 437.54 159.23 435.00 159.17 C 404.29 158.97 373.56 159.35 342.85 158.98 C 342.46 147.37 342.80 135.75 342.67 124.14 Z" />
<path fill="#cacaca" opacity="1.00" d=" M 451.27 124.14 C 462.49 124.14 473.71 124.14 484.93 124.14 C 484.83 132.91 484.92 141.68 484.85 150.44 C 479.93 150.53 475.02 150.30 470.11 150.53 C 466.88 150.61 464.21 153.68 464.38 156.87 C 464.30 166.29 464.40 175.72 464.35 185.14 C 460.00 185.35 455.64 185.33 451.30 185.08 C 451.26 164.77 451.31 144.45 451.27 124.14 Z" />
<path fill="#cacaca" opacity="1.00" d=" M 498.30 156.27 C 498.78 156.83 498.78 156.83 498.30 156.27 Z" />
<path fill="#cacaca" opacity="1.00" d=" M 342.65 176.57 C 375.86 176.54 409.07 176.55 442.29 176.56 C 442.52 179.40 442.55 182.26 442.36 185.11 C 409.19 185.44 376.00 185.27 342.82 185.19 C 342.69 182.32 342.64 179.44 342.65 176.57 Z" />
<path fill="#cacaca" opacity="1.00" d=" M 475.13 191.59 C 480.03 191.54 484.92 191.54 489.82 191.59 C 489.95 206.45 489.79 221.30 489.91 236.15 C 484.99 236.68 480.03 236.54 475.11 236.20 C 474.98 221.33 475.13 206.46 475.13 191.59 Z" />
<path fill="#cacaca" opacity="1.00" d=" M 494.87 191.58 C 504.05 191.55 513.23 191.55 522.42 191.58 C 522.37 194.91 522.83 198.48 521.19 201.54 C 517.61 202.97 516.99 206.75 517.36 210.18 C 509.90 210.29 502.45 210.41 495.00 210.17 C 494.78 203.97 494.86 197.77 494.87 191.58 Z" />
<path fill="#cacaca" opacity="1.00" d=" M 214.19 193.16 C 220.84 193.14 227.49 193.15 234.14 193.15 C 234.03 211.75 234.36 230.36 233.97 248.95 C 227.40 249.21 220.81 249.25 214.25 248.91 C 214.12 230.33 214.23 211.74 214.19 193.16 Z" />
<path fill="#cacaca" opacity="1.00" d=" M 240.49 193.23 C 259.19 193.04 277.88 193.20 296.57 193.15 C 296.61 200.41 296.51 207.66 296.67 214.92 C 291.14 215.77 285.55 215.21 279.98 215.34 C 266.87 215.25 253.74 215.56 240.63 215.20 C 240.28 207.88 240.48 200.55 240.49 193.23 Z" />
<path fill="#cacaca" opacity="1.00" d=" M 302.76 193.15 C 309.41 193.15 316.06 193.14 322.71 193.16 C 322.73 211.72 322.70 230.28 322.72 248.84 C 316.15 249.31 309.55 249.22 302.97 248.96 C 302.53 230.36 302.94 211.75 302.76 193.15 Z" />
<path fill="#cacaca" opacity="1.00" d=" M 372.18 210.12 C 385.86 210.27 399.56 210.28 413.25 210.11 C 412.50 216.73 413.19 223.38 412.78 230.02 C 412.69 232.22 412.93 234.41 413.19 236.59 C 421.13 236.49 429.07 236.59 437.01 236.52 C 438.80 236.69 441.08 236.07 442.30 237.81 C 442.81 240.70 442.53 243.67 442.55 246.59 C 409.22 246.52 375.89 246.78 342.57 246.46 C 343.10 243.32 341.42 239.14 344.02 236.77 C 353.24 236.14 362.52 236.87 371.75 236.45 L 372.10 236.03 C 372.41 227.40 372.17 218.75 372.18 210.12 Z" />
<path fill="#cacaca" opacity="1.00" d=" M 494.87 217.77 C 502.38 217.76 509.89 217.77 517.40 217.77 C 517.40 223.96 517.41 230.15 517.40 236.34 C 509.94 236.45 502.48 236.61 495.03 236.24 C 494.80 230.08 494.85 223.93 494.87 217.77 Z" />
<path fill="#cacaca" opacity="1.00" d=" M 521.17 224.74 C 529.06 224.73 536.95 224.72 544.84 224.75 C 545.14 228.05 545.14 231.37 544.88 234.67 C 537.01 234.69 529.14 234.69 521.27 234.69 C 521.03 231.37 520.99 228.05 521.17 224.74 Z" />
<path fill="#cacaca" opacity="1.00" d=" M 240.34 226.82 C 259.08 226.80 277.82 226.81 296.55 226.82 C 296.62 234.15 296.56 241.49 296.60 248.82 C 285.07 249.54 273.50 248.90 261.95 249.13 C 254.75 249.00 247.53 249.43 240.34 248.86 C 240.35 241.51 240.36 234.17 240.34 226.82 Z" />
<path fill="#cacaca" opacity="1.00" d=" M 521.12 240.85 C 529.05 240.85 536.97 240.86 544.90 240.84 C 545.12 244.16 545.11 247.49 544.88 250.81 C 537.00 250.83 529.12 251.03 521.25 250.84 C 521.05 247.51 521.00 244.18 521.12 240.85 Z" />
<path fill="#cacaca" opacity="1.00" d=" M 181.77 258.00 C 187.98 257.50 194.22 257.85 200.44 257.76 C 245.77 257.75 291.10 257.74 336.43 257.76 C 342.54 257.75 348.65 257.74 354.76 257.76 C 354.48 259.67 352.61 260.51 351.06 261.21 C 346.01 263.28 340.52 264.10 335.08 264.14 C 293.41 264.11 251.73 264.14 210.05 264.13 C 204.04 264.09 197.94 264.49 192.04 263.10 C 188.32 262.20 184.12 261.33 181.77 258.00 Z" />
</g>
</svg>
