<svg id="kity_svg_6" xmlns="http://www.w3.org/2000/svg" xmlns:xlink="http://www.w3.org/1999/xlink" version="1.1" width="3133" height="1081" style="background: rgb(251, 251, 251); visibility: visible;" viewBox="0 0 3133 1081"><defs id="kity_defs_7"><linearGradient id="kity_linearGradient_17" x1="0" y1="0" x2="0" y2="1"><stop id="kity_stop_18" offset="0" stop-color="rgb(255, 255, 255)"></stop><stop id="kity_stop_19" offset="1" stop-color="rgb(204, 204, 204)"></stop></linearGradient><marker id="kity_marker_2" orient="auto" refX="6" refY="0" viewBox="-7 -7 14 14" markerWidth="7" markerHeight="7" markerUnits="userSpaceOnUse"><path id="kity_path_3" fill="rgb(115, 161, 191)" stroke="none" d="M6,0A6,6,0,1,1,-6,0A6,6,0,1,1,6,0"></path></marker></defs><g id="kity_g_8"><g id="minder1" text-rendering="optimize-speed"><g id="minder_connect_group1"><path id="kity_path_31" fill="none" stroke="rgb(115, 161, 191)" stroke-width="1" d="M1272.5000275447965,60.50000286847353v30h-1195.5V110.50000286847353"></path><path id="kity_path_33" fill="none" stroke="rgb(115, 161, 191)" stroke-width="1" d="M40.50002754479647,136.50000286847353V182.50000286847353L60.50002754479647,182.50000286847353"></path><path id="kity_path_35" fill="none" stroke="rgb(115, 161, 191)" stroke-width="1" d="M80.50002754479647,193.50000286847353V243.50000286847353L100.50002754479647,243.50000286847353"></path><path id="kity_path_37" fill="none" stroke="rgb(115, 161, 191)" stroke-width="1" d="M40.50002754479647,136.50000286847353V304.50000286847353L60.50002754479647,304.50000286847353"></path><path id="kity_path_39" fill="none" stroke="rgb(115, 161, 191)" stroke-width="1" d="M80.50002754479647,315.50000286847353V356.50000286847353L100.50002754479647,356.50000286847353"></path><path id="kity_path_41" fill="none" stroke="rgb(115, 161, 191)" stroke-width="1" d="M80.50002754479647,315.50000286847353V408.50000286847353L100.50002754479647,408.50000286847353"></path><path id="kity_path_43" fill="none" stroke="rgb(115, 161, 191)" stroke-width="1" d="M80.50002754479647,315.50000286847353V460.50000286847353L100.50002754479647,460.50000286847353"></path><path id="kity_path_45" fill="none" stroke="rgb(115, 161, 191)" stroke-width="1" d="M40.50002754479647,136.50000286847353V512.5000028684735L60.50002754479647,512.5000028684735"></path><path id="kity_path_47" fill="none" stroke="rgb(115, 161, 191)" stroke-width="1" d="M80.50002754479647,523.5000028684735V564.5000028684735L100.50002754479647,564.5000028684735"></path><path id="kity_path_49" fill="none" stroke="rgb(115, 161, 191)" stroke-width="1" d="M40.50002754479647,136.50000286847353V616.5000028684735L60.50002754479647,616.5000028684735"></path><path id="kity_path_51" fill="none" stroke="rgb(115, 161, 191)" stroke-width="1" d="M80.50002754479647,627.5000028684735V668.5000028684735L100.50002754479647,668.5000028684735"></path><path id="kity_path_53" fill="none" stroke="rgb(115, 161, 191)" stroke-width="1" d="M80.50002754479647,627.5000028684735V720.5000028684735L100.50002754479647,720.5000028684735"></path><path id="kity_path_55" fill="none" stroke="rgb(115, 161, 191)" stroke-width="1" d="M40.50002754479647,136.50000286847353V772.5000028684735L60.50002754479647,772.5000028684735"></path><path id="kity_path_57" fill="none" stroke="rgb(115, 161, 191)" stroke-width="1" d="M80.50002754479647,783.5000028684735V824.5000028684735L100.50002754479647,824.5000028684735"></path><path id="kity_path_59" fill="none" stroke="rgb(115, 161, 191)" stroke-width="1" d="M40.50002754479647,136.50000286847353V876.5000028684735L60.50002754479647,876.5000028684735"></path><path id="kity_path_61" fill="none" stroke="rgb(115, 161, 191)" stroke-width="1" d="M80.50002754479647,887.5000028684735V928.5000028684735L100.50002754479647,928.5000028684735"></path><path id="kity_path_63" fill="none" stroke="rgb(115, 161, 191)" stroke-width="1" d="M80.50002754479647,887.5000028684735V989.5000028684735L100.50002754479647,989.5000028684735"></path><path id="kity_path_65" fill="none" stroke="rgb(115, 161, 191)" stroke-width="1" d="M80.50002754479647,887.5000028684735V1050.5000028684735L100.50002754479647,1050.5000028684735"></path><path id="kity_path_67" fill="none" stroke="rgb(115, 161, 191)" stroke-width="1" d="M1272.5000275447965,60.50000286847353v30h-332.5V110.50000286847353"></path><path id="kity_path_69" fill="none" stroke="rgb(115, 161, 191)" stroke-width="1" d="M889.5000275447965,136.50000286847353V182.50000286847353L909.5000275447965,182.50000286847353"></path><path id="kity_path_71" fill="none" stroke="rgb(115, 161, 191)" stroke-width="1" d="M929.5000275447965,193.50000286847353V234.50000286847353L949.5000275447965,234.50000286847353"></path><path id="kity_path_73" fill="none" stroke="rgb(115, 161, 191)" stroke-width="1" d="M929.5000275447965,193.50000286847353V286.50000286847353L949.5000275447965,286.50000286847353"></path><path id="kity_path_75" fill="none" stroke="rgb(115, 161, 191)" stroke-width="1" d="M929.5000275447965,193.50000286847353V356.50000286847353L949.5000275447965,356.50000286847353"></path><path id="kity_path_77" fill="none" stroke="rgb(115, 161, 191)" stroke-width="1" d="M929.5000275447965,193.50000286847353V426.50000286847353L949.5000275447965,426.50000286847353"></path><path id="kity_path_79" fill="none" stroke="rgb(115, 161, 191)" stroke-width="1" d="M889.5000275447965,136.50000286847353V478.50000286847353L909.5000275447965,478.50000286847353"></path><path id="kity_path_81" fill="none" stroke="rgb(115, 161, 191)" stroke-width="1" d="M929.5000275447965,489.50000286847353V530.5000028684735L949.5000275447965,530.5000028684735"></path><path id="kity_path_83" fill="none" stroke="rgb(115, 161, 191)" stroke-width="1" d="M929.5000275447965,489.50000286847353V586.5000028684735L949.5000275447965,586.5000028684735"></path><path id="kity_path_85" fill="none" stroke="rgb(115, 161, 191)" stroke-width="1" d="M929.5000275447965,489.50000286847353V646.5000028684735L949.5000275447965,646.5000028684735"></path><path id="kity_path_87" fill="none" stroke="rgb(115, 161, 191)" stroke-width="1" d="M929.5000275447965,489.50000286847353V706.5000028684735L949.5000275447965,706.5000028684735"></path><path id="kity_path_89" fill="none" stroke="rgb(115, 161, 191)" stroke-width="1" d="M929.5000275447965,489.50000286847353V766.5000028684735L949.5000275447965,766.5000028684735"></path><path id="kity_path_91" fill="none" stroke="rgb(115, 161, 191)" stroke-width="1" d="M889.5000275447965,136.50000286847353V822.5000028684735L909.5000275447965,822.5000028684735"></path><path id="kity_path_93" fill="none" stroke="rgb(115, 161, 191)" stroke-width="1" d="M929.5000275447965,833.5000028684735V874.5000028684735L949.5000275447965,874.5000028684735"></path><path id="kity_path_95" fill="none" stroke="rgb(115, 161, 191)" stroke-width="1" d="M929.5000275447965,833.5000028684735V926.5000028684735L949.5000275447965,926.5000028684735"></path><path id="kity_path_97" fill="none" stroke="rgb(115, 161, 191)" stroke-width="1" d="M1272.5000275447965,60.50000286847353v30h468.5V110.50000286847353"></path><path id="kity_path_99" fill="none" stroke="rgb(115, 161, 191)" stroke-width="1" d="M1704.5000275447965,136.50000286847353V182.50000286847353L1724.5000275447965,182.50000286847353"></path><path id="kity_path_101" fill="none" stroke="rgb(115, 161, 191)" stroke-width="1" d="M1744.5000275447965,193.50000286847353V234.50000286847353L1764.5000275447965,234.50000286847353"></path><path id="kity_path_103" fill="none" stroke="rgb(115, 161, 191)" stroke-width="1" d="M1744.5000275447965,193.50000286847353V286.50000286847353L1764.5000275447965,286.50000286847353"></path><path id="kity_path_105" fill="none" stroke="rgb(115, 161, 191)" stroke-width="1" d="M1744.5000275447965,193.50000286847353V338.50000286847353L1764.5000275447965,338.50000286847353"></path><path id="kity_path_107" fill="none" stroke="rgb(115, 161, 191)" stroke-width="1" d="M1704.5000275447965,136.50000286847353V390.50000286847353L1724.5000275447965,390.50000286847353"></path><path id="kity_path_109" fill="none" stroke="rgb(115, 161, 191)" stroke-width="1" d="M1744.5000275447965,401.50000286847353V442.50000286847353L1764.5000275447965,442.50000286847353"></path><path id="kity_path_111" fill="none" stroke="rgb(115, 161, 191)" stroke-width="1" d="M1744.5000275447965,401.50000286847353V494.50000286847353L1764.5000275447965,494.50000286847353"></path><path id="kity_path_113" fill="none" stroke="rgb(115, 161, 191)" stroke-width="1" d="M1744.5000275447965,401.50000286847353V546.5000028684735L1764.5000275447965,546.5000028684735"></path><path id="kity_path_115" fill="none" stroke="rgb(115, 161, 191)" stroke-width="1" d="M1704.5000275447965,136.50000286847353V598.5000028684735L1724.5000275447965,598.5000028684735"></path><path id="kity_path_117" fill="none" stroke="rgb(115, 161, 191)" stroke-width="1" d="M1744.5000275447965,609.5000028684735V650.5000028684735L1764.5000275447965,650.5000028684735"></path><path id="kity_path_119" fill="none" stroke="rgb(115, 161, 191)" stroke-width="1" d="M1744.5000275447965,609.5000028684735V702.5000028684735L1764.5000275447965,702.5000028684735"></path><path id="kity_path_121" fill="none" stroke="rgb(115, 161, 191)" stroke-width="1" d="M1704.5000275447965,136.50000286847353V754.5000028684735L1724.5000275447965,754.5000028684735"></path><path id="kity_path_123" fill="none" stroke="rgb(115, 161, 191)" stroke-width="1" d="M1744.5000275447965,765.5000028684735V806.5000028684735L1764.5000275447965,806.5000028684735"></path><path id="kity_path_125" fill="none" stroke="rgb(115, 161, 191)" stroke-width="1" d="M1272.5000275447965,60.50000286847353v30h1196V110.50000286847353"></path><path id="kity_path_127" fill="none" stroke="rgb(115, 161, 191)" stroke-width="1" d="M2432.5000275447965,136.50000286847353V182.50000286847353L2452.5000275447965,182.50000286847353"></path><path id="kity_path_129" fill="none" stroke="rgb(115, 161, 191)" stroke-width="1" d="M2472.5000275447965,193.50000286847353V234.50000286847353L2492.5000275447965,234.50000286847353"></path><path id="kity_path_131" fill="none" stroke="rgb(115, 161, 191)" stroke-width="1" d="M2472.5000275447965,193.50000286847353V286.50000286847353L2492.5000275447965,286.50000286847353"></path><path id="kity_path_133" fill="none" stroke="rgb(115, 161, 191)" stroke-width="1" d="M2472.5000275447965,193.50000286847353V338.50000286847353L2492.5000275447965,338.50000286847353"></path><path id="kity_path_135" fill="none" stroke="rgb(115, 161, 191)" stroke-width="1" d="M2432.5000275447965,136.50000286847353V390.50000286847353L2452.5000275447965,390.50000286847353"></path><path id="kity_path_137" fill="none" stroke="rgb(115, 161, 191)" stroke-width="1" d="M2472.5000275447965,401.50000286847353V442.50000286847353L2492.5000275447965,442.50000286847353"></path><path id="kity_path_139" fill="none" stroke="rgb(115, 161, 191)" stroke-width="1" d="M2472.5000275447965,401.50000286847353V494.50000286847353L2492.5000275447965,494.50000286847353"></path><path id="kity_path_141" fill="none" stroke="rgb(115, 161, 191)" stroke-width="1" d="M2432.5000275447965,136.50000286847353V546.5000028684735L2452.5000275447965,546.5000028684735"></path><path id="kity_path_143" fill="none" stroke="rgb(115, 161, 191)" stroke-width="1" d="M2472.5000275447965,557.5000028684735V598.5000028684735L2492.5000275447965,598.5000028684735"></path></g><g id="minder_node1"><path id="node_outline1" fill="rgb(115, 161, 191)" stroke="rgb(115, 161, 191)" d="M1188.5000275447965,20.50000286847353h167a5,5,0,0,1,5,5v30a5,5,0,0,1,-5,5h-167a5,5,0,0,1,-5,-5v-30a5,5,0,0,1,5,-5z" stroke-width="3"></path><g id="node_text1" fill="white"><text id="kity_text_22" text-rendering="inherit" font-size="16" dy=".8em" y="30.100002832710743" x="1207.5000275447965">科技丶娱乐与设计</text></g></g><g id="kity_g_12"><path id="kity_path_13" fill="none" stroke="none" d="M1207.5000275447965,40.50000286847353h0v0h0z"></path></g><g id="kity_g_14"><path id="kity_path_15" fill="none" stroke="none" d="M1207.5000275447965,40.50000286847353h0v0h0z"></path><path id="kity_path_16" fill="none" stroke="none"></path></g><g id="minder_node2"><g id="node_expander18" style="cursor: pointer;"><path id="kity_path_387" fill="white" stroke="gray" d="M82.50001069158316,103.50000380724669A6,6,0,1,1,70.50001069158316,103.50000380724669A6,6,0,1,1,82.50001069158316,103.50000380724669"></path><path id="kity_path_388" fill="none" stroke="gray" d="M72.00001069158316,103.50000380724669L81.00001069158316,103.50000380724669"></path></g><path id="node_outline19" fill="rgb(238, 243, 246)" stroke="rgb(115, 161, 191)" d="M23.500010155141354,110.50000410526991h106a3,3,0,0,1,3,3v20a3,3,0,0,1,-3,3h-106a3,3,0,0,1,-3,-3v-20a3,3,0,0,1,3,-3z" stroke-width="1"></path><g id="node_text19" fill="black"><text id="kity_text_179" text-rendering="inherit" font-size="14" dy=".8em" y="114.40000407397747" x="40.500010155141354">科技善恶论</text></g></g><g id="minder_node3"><g id="node_expander2" style="cursor: pointer;"><path id="kity_path_339" fill="white" stroke="gray" d="M60.50001036375761,182.50000498443842A6,6,0,1,1,48.50001036375761,182.50000498443842A6,6,0,1,1,60.50001036375761,182.50000498443842"></path><path id="kity_path_340" fill="none" stroke="gray" d="M50.00001036375761,182.50000498443842L59.00001036375761,182.50000498443842"></path></g><path id="node_outline3" fill="#f2f2f2" stroke="none" d="M65.50001060217619,171.50000498443842h120a5,5,0,0,1,5,5v12a5,5,0,0,1,-5,5h-120a5,5,0,0,1,-5,-5v-12a5,5,0,0,1,5,-5z"></path><g id="node_text3" fill="black"><text id="kity_text_147" text-rendering="inherit" font-size="12" dy=".8em" y="174.70000495761633" x="70.50001060217619">科技向上，更要向善</text></g></g><g id="minder_node4"><g id="node_expander1" style="cursor: pointer;" display="none"><path id="kity_path_336" fill="white" stroke="gray" d="M100.50001095980406,243.50000589340925A6,6,0,1,1,88.50001095980406,243.50000589340925A6,6,0,1,1,100.50001095980406,243.50000589340925"></path><path id="kity_path_337" fill="none" stroke="gray"></path></g><path id="node_outline2" fill="none" stroke="none" d="M105.50001119822264,223.50000589340925h432a5,5,0,0,1,5,5v30a5,5,0,0,1,-5,5h-432a5,5,0,0,1,-5,-5v-30a5,5,0,0,1,5,-5z" stroke-width="3"></path><g id="node_text2" fill="black"><text id="kity_text_145" text-rendering="inherit" font-size="12" dy=".8em" y="226.70000586658716" x="110.50001119822264">科技快速发展的几十年来，一方面给人们以实实在在的</text><text id="kity_text_508" text-rendering="inherit" font-size="12" dy=".8em" y="244.70000586658716" x="110.50001119822264">便利，另一方面也让人们面临着许多前所未有的问题：焦虑、孤独、冷漠、隐私</text></g></g><g id="minder_node5"><g id="node_expander6" style="cursor: pointer;"><path id="kity_path_351" fill="white" stroke="gray" d="M60.50001036375761,304.5000068023801A6,6,0,1,1,48.50001036375761,304.5000068023801A6,6,0,1,1,60.50001036375761,304.5000068023801"></path><path id="kity_path_352" fill="none" stroke="gray" d="M50.00001036375761,304.5000068023801L59.00001036375761,304.5000068023801"></path></g><path id="node_outline7" fill="#f2f2f2" stroke="none" d="M65.50001060217619,293.5000068023801h59a5,5,0,0,1,5,5v12a5,5,0,0,1,-5,5h-59a5,5,0,0,1,-5,-5v-12a5,5,0,0,1,5,-5z"></path><g id="node_text7" fill="black"><text id="kity_text_155" text-rendering="inherit" font-size="12" dy=".8em" y="296.700006775558" x="70.50001060217619">科技恶霸</text></g></g><g id="minder_node6"><g id="node_expander3" style="cursor: pointer;" display="none"><path id="kity_path_342" fill="white" stroke="gray" d="M100.50001095980406,356.50000757724047A6,6,0,1,1,88.50001095980406,356.50000757724047A6,6,0,1,1,100.50001095980406,356.50000757724047"></path><path id="kity_path_343" fill="none" stroke="gray"></path></g><path id="node_outline4" fill="none" stroke="none" d="M105.50001119822264,345.50000757724047h562a5,5,0,0,1,5,5v12a5,5,0,0,1,-5,5h-562a5,5,0,0,1,-5,-5v-12a5,5,0,0,1,5,-5z"></path><g id="node_text4" fill="black"><text id="kity_text_149" text-rendering="inherit" font-size="12" dy=".8em" y="348.7000075504184" x="110.50001119822264">霸权主义人类创造了人工智能独裁者，独裁统治往往披着民主的外衣，科技的进步有可能导致民主的退步</text></g></g><g id="minder_node7"><g id="node_expander4" style="cursor: pointer;" display="none"><path id="kity_path_345" fill="white" stroke="gray" d="M100.50001095980406,408.50000835210085A6,6,0,1,1,88.50001095980406,408.50000835210085A6,6,0,1,1,100.50001095980406,408.50000835210085"></path><path id="kity_path_346" fill="none" stroke="gray"></path></g><path id="node_outline5" fill="none" stroke="none" d="M105.50001119822264,397.50000835210085h371a5,5,0,0,1,5,5v12a5,5,0,0,1,-5,5h-371a5,5,0,0,1,-5,-5v-12a5,5,0,0,1,5,-5z"></path><g id="node_text5" fill="black"><text id="kity_text_151" text-rendering="inherit" font-size="12" dy=".8em" y="400.70000832527876" x="110.50001119822264">在AI和大数据面前，你没有选择权。这是一场无法退出的生存游戏。</text></g></g><g id="minder_node8"><g id="node_expander5" style="cursor: pointer;" display="none"><path id="kity_path_348" fill="white" stroke="gray" d="M100.50001095980406,460.50000912696123A6,6,0,1,1,88.50001095980406,460.50000912696123A6,6,0,1,1,100.50001095980406,460.50000912696123"></path><path id="kity_path_349" fill="none" stroke="gray"></path></g><path id="node_outline6" fill="none" stroke="none" d="M105.50001119822264,449.50000912696123h156a5,5,0,0,1,5,5v12a5,5,0,0,1,-5,5h-156a5,5,0,0,1,-5,-5v-12a5,5,0,0,1,5,-5z"></path><g id="node_text6" fill="black"><text id="kity_text_153" text-rendering="inherit" font-size="12" dy=".8em" y="452.70000910013914" x="110.50001119822264">人类才分善恶，AI只分对错</text></g></g><g id="minder_node9"><g id="node_expander8" style="cursor: pointer;"><path id="kity_path_357" fill="white" stroke="gray" d="M60.50001036375761,512.5000099018216A6,6,0,1,1,48.50001036375761,512.5000099018216A6,6,0,1,1,60.50001036375761,512.5000099018216"></path><path id="kity_path_358" fill="none" stroke="gray" d="M50.00001036375761,512.5000099018216L59.00001036375761,512.5000099018216"></path></g><path id="node_outline9" fill="#f2f2f2" stroke="none" d="M65.50001060217619,501.5000099018216h95a5,5,0,0,1,5,5v12a5,5,0,0,1,-5,5h-95a5,5,0,0,1,-5,-5v-12a5,5,0,0,1,5,-5z"></path><g id="node_text9" fill="black"><text id="kity_text_159" text-rendering="inherit" font-size="12" dy=".8em" y="504.7000098749995" x="70.50001060217619">人是技术的尺度</text></g></g><g id="minder_node10"><g id="node_expander7" style="cursor: pointer;" display="none"><path id="kity_path_354" fill="white" stroke="gray" d="M100.50001095980406,564.500010676682A6,6,0,1,1,88.50001095980406,564.500010676682A6,6,0,1,1,100.50001095980406,564.500010676682"></path><path id="kity_path_355" fill="none" stroke="gray"></path></g><path id="node_outline8" fill="none" stroke="none" d="M105.50001119822264,553.500010676682h563a5,5,0,0,1,5,5v12a5,5,0,0,1,-5,5h-563a5,5,0,0,1,-5,-5v-12a5,5,0,0,1,5,-5z"></path><g id="node_text8" fill="black"><text id="kity_text_157" text-rendering="inherit" font-size="12" dy=".8em" y="556.7000106498599" x="110.50001119822264">新技术应该有更多的社会视角，也应该让更多人在新技术的发展和使用中能够有更多的话语权和参与度。</text></g></g><g id="minder_node11"><g id="node_expander11" style="cursor: pointer;"><path id="kity_path_366" fill="white" stroke="gray" d="M60.50001036375761,616.5000114515424A6,6,0,1,1,48.50001036375761,616.5000114515424A6,6,0,1,1,60.50001036375761,616.5000114515424"></path><path id="kity_path_367" fill="none" stroke="gray" d="M50.00001036375761,616.5000114515424L59.00001036375761,616.5000114515424"></path></g><path id="node_outline12" fill="#f2f2f2" stroke="none" d="M65.50001060217619,605.5000114515424h48a5,5,0,0,1,5,5v12a5,5,0,0,1,-5,5h-48a5,5,0,0,1,-5,-5v-12a5,5,0,0,1,5,-5z"></path><g id="node_text12" fill="black"><text id="kity_text_165" text-rendering="inherit" font-size="12" dy=".8em" y="608.7000114247203" x="70.50001060217619">技术观</text></g></g><g id="minder_node12"><g id="node_expander9" style="cursor: pointer;" display="none"><path id="kity_path_360" fill="white" stroke="gray" d="M100.50001095980406,668.5000122264028A6,6,0,1,1,88.50001095980406,668.5000122264028A6,6,0,1,1,100.50001095980406,668.5000122264028"></path><path id="kity_path_361" fill="none" stroke="gray"></path></g><path id="node_outline10" fill="none" stroke="none" d="M105.50001119822264,657.5000122264028h647a5,5,0,0,1,5,5v12a5,5,0,0,1,-5,5h-647a5,5,0,0,1,-5,-5v-12a5,5,0,0,1,5,-5z"></path><g id="node_text10" fill="black"><text id="kity_text_161" text-rendering="inherit" font-size="12" dy=".8em" y="660.7000121995807" x="110.50001119822264">技术悲观者；新技术一旦发明出来，总是会被滥用和误用，尤其是在既得利益者面前，更是将这一特点发挥得淋漓尽致。</text></g></g><g id="minder_node13"><g id="node_expander10" style="cursor: pointer;" display="none"><path id="kity_path_363" fill="white" stroke="gray" d="M100.50001095980406,720.5000130012631A6,6,0,1,1,88.50001095980406,720.5000130012631A6,6,0,1,1,100.50001095980406,720.5000130012631"></path><path id="kity_path_364" fill="none" stroke="gray"></path></g><path id="node_outline11" fill="none" stroke="none" d="M105.50001119822264,709.5000130012631h569a5,5,0,0,1,5,5v12a5,5,0,0,1,-5,5h-569a5,5,0,0,1,-5,-5v-12a5,5,0,0,1,5,-5z"></path><g id="node_text11" fill="black"><text id="kity_text_163" text-rendering="inherit" font-size="12" dy=".8em" y="712.700012974441" x="110.50001119822264">技术乐观者：科学技术的发展是社会进步的动力, 科学技术的进步必然会推动社会经济发展的思想和看法。</text></g></g><g id="minder_node14"><g id="node_expander13" style="cursor: pointer;"><path id="kity_path_372" fill="white" stroke="gray" d="M60.50001036375761,772.5000137761235A6,6,0,1,1,48.50001036375761,772.5000137761235A6,6,0,1,1,60.50001036375761,772.5000137761235"></path><path id="kity_path_373" fill="none" stroke="gray" d="M50.00001036375761,772.5000137761235L59.00001036375761,772.5000137761235"></path></g><path id="node_outline14" fill="#f2f2f2" stroke="none" d="M65.50001060217619,761.5000137761235h143a5,5,0,0,1,5,5v12a5,5,0,0,1,-5,5h-143a5,5,0,0,1,-5,-5v-12a5,5,0,0,1,5,-5z"></path><g id="node_text14" fill="black"><text id="kity_text_169" text-rendering="inherit" font-size="12" dy=".8em" y="764.7000137493014" x="70.50001060217619">权力与义务的机器化转移</text></g></g><g id="minder_node15"><g id="node_expander12" style="cursor: pointer;" display="none"><path id="kity_path_369" fill="white" stroke="gray" d="M100.50001095980406,824.5000145509839A6,6,0,1,1,88.50001095980406,824.5000145509839A6,6,0,1,1,100.50001095980406,824.5000145509839"></path><path id="kity_path_370" fill="none" stroke="gray"></path></g><path id="node_outline13" fill="none" stroke="none" d="M105.50001119822264,813.5000145509839h407a5,5,0,0,1,5,5v12a5,5,0,0,1,-5,5h-407a5,5,0,0,1,-5,-5v-12a5,5,0,0,1,5,-5z"></path><g id="node_text13" fill="black"><text id="kity_text_167" text-rendering="inherit" font-size="12" dy=".8em" y="816.7000145241618" x="110.50001119822264">很多很多的技术创新，会让我们把很多很多的权力和责任转移到机器上面。</text></g></g><g id="minder_node16"><g id="node_expander17" style="cursor: pointer;"><path id="kity_path_384" fill="white" stroke="gray" d="M60.50001036375761,876.5000153258443A6,6,0,1,1,48.50001036375761,876.5000153258443A6,6,0,1,1,60.50001036375761,876.5000153258443"></path><path id="kity_path_385" fill="none" stroke="gray" d="M50.00001036375761,876.5000153258443L59.00001036375761,876.5000153258443"></path></g><path id="node_outline18" fill="#f2f2f2" stroke="none" d="M65.50001060217619,865.5000153258443h120a5,5,0,0,1,5,5v12a5,5,0,0,1,-5,5h-120a5,5,0,0,1,-5,-5v-12a5,5,0,0,1,5,-5z"></path><g id="node_text18" fill="black"><text id="kity_text_177" text-rendering="inherit" font-size="12" dy=".8em" y="868.7000152990222" x="70.50001060217619">科技上瘾，陷入孤独</text></g></g><g id="minder_node17"><g id="node_expander14" style="cursor: pointer;" display="none"><path id="kity_path_375" fill="white" stroke="gray" d="M100.50001095980406,928.5000161007047A6,6,0,1,1,88.50001095980406,928.5000161007047A6,6,0,1,1,100.50001095980406,928.5000161007047"></path><path id="kity_path_376" fill="none" stroke="gray"></path></g><path id="node_outline15" fill="none" stroke="none" d="M105.50001119822264,917.5000161007047h719a5,5,0,0,1,5,5v12a5,5,0,0,1,-5,5h-719a5,5,0,0,1,-5,-5v-12a5,5,0,0,1,5,-5z"></path><g id="node_text15" fill="black"><text id="kity_text_171" text-rendering="inherit" font-size="12" dy=".8em" y="920.7000160738826" x="110.50001119822264">科技的发展似乎并没有让我们更开心，即使面对面，还是感到了距离感。我们封闭了自己，通过网络与他人连接，陷入了群体性孤独。</text></g></g><g id="minder_node18"><g id="node_expander15" style="cursor: pointer;" display="none"><path id="kity_path_378" fill="white" stroke="gray" d="M100.50001095980406,989.5000170096755A6,6,0,1,1,88.50001095980406,989.5000170096755A6,6,0,1,1,100.50001095980406,989.5000170096755"></path><path id="kity_path_379" fill="none" stroke="gray"></path></g><path id="node_outline16" fill="none" stroke="none" d="M105.50001119822264,969.5000170096755h635a5,5,0,0,1,5,5v30a5,5,0,0,1,-5,5h-635a5,5,0,0,1,-5,-5v-30a5,5,0,0,1,5,-5z" stroke-width="3"></path><g id="node_text16" fill="black"><text id="kity_text_173" text-rendering="inherit" font-size="12" dy=".8em" y="972.7000169828534" x="110.50001119822264">科技和互联网带来的“瘾”（写为瘾，读作技术爆炸）是值得的。</text><text id="kity_text_509" text-rendering="inherit" font-size="12" dy=".8em" y="990.7000169828534" x="110.50001119822264">没有科技和互联网带来的便利，就没有各种碰撞和思考，注意力虽然分散了，但是却得以让我们了解更多更广的事物。</text></g></g><g id="minder_node19"><g id="node_expander16" style="cursor: pointer;" display="none"><path id="kity_path_381" fill="white" stroke="gray" d="M100.50001095980406,1050.5000179186463A6,6,0,1,1,88.50001095980406,1050.5000179186463A6,6,0,1,1,100.50001095980406,1050.5000179186463"></path><path id="kity_path_382" fill="none" stroke="gray"></path></g><path id="node_outline17" fill="none" stroke="none" d="M105.50001119822264,1039.5000179186463h251a5,5,0,0,1,5,5v12a5,5,0,0,1,-5,5h-251a5,5,0,0,1,-5,-5v-12a5,5,0,0,1,5,-5z"></path><g id="node_text17" fill="black"><text id="kity_text_175" text-rendering="inherit" font-size="12" dy=".8em" y="1042.7000178918242" x="110.50001119822264">这一切都要建立在有效率和有人情味的前提下</text></g></g><g id="minder_node20"><g id="node_expander33" style="cursor: pointer;"><path id="kity_path_432" fill="white" stroke="gray" d="M945.5000235512853,103.50000380724669A6,6,0,1,1,933.5000235512853,103.50000380724669A6,6,0,1,1,945.5000235512853,103.50000380724669"></path><path id="kity_path_433" fill="none" stroke="gray" d="M935.0000235512853,103.50000380724669L944.0000235512853,103.50000380724669"></path></g><path id="node_outline34" fill="rgb(238, 243, 246)" stroke="rgb(115, 161, 191)" d="M872.5000228062272,110.50000410526991h134a3,3,0,0,1,3,3v20a3,3,0,0,1,-3,3h-134a3,3,0,0,1,-3,-3v-20a3,3,0,0,1,3,-3z" stroke-width="1"></path><g id="node_text34" fill="black"><text id="kity_text_209" text-rendering="inherit" font-size="14" dy=".8em" y="114.40000407397747" x="889.5000228062272">情绪化做人做事</text></g></g><g id="minder_node21"><g id="node_expander23" style="cursor: pointer;"><path id="kity_path_402" fill="white" stroke="gray" d="M909.5000230148435,182.50000498443842A6,6,0,1,1,897.5000230148435,182.50000498443842A6,6,0,1,1,909.5000230148435,182.50000498443842"></path><path id="kity_path_403" fill="none" stroke="gray" d="M899.0000230148435,182.50000498443842L908.0000230148435,182.50000498443842"></path></g><path id="node_outline24" fill="#f2f2f2" stroke="none" d="M914.500023253262,171.50000498443842h195a5,5,0,0,1,5,5v12a5,5,0,0,1,-5,5h-195a5,5,0,0,1,-5,-5v-12a5,5,0,0,1,5,-5z"></path><g id="node_text24" fill="black"><text id="kity_text_189" text-rendering="inherit" font-size="12" dy=".8em" y="174.70000495761633" x="919.500023253262">情绪化设计（emotional design）</text></g></g><g id="minder_node22"><g id="node_expander19" style="cursor: pointer;" display="none"><path id="kity_path_390" fill="white" stroke="gray" d="M949.5000236108899,234.5000057592988A6,6,0,1,1,937.5000236108899,234.5000057592988A6,6,0,1,1,949.5000236108899,234.5000057592988"></path><path id="kity_path_391" fill="none" stroke="gray"></path></g><path id="node_outline20" fill="none" stroke="none" d="M954.5000238493085,223.5000057592988h143a5,5,0,0,1,5,5v12a5,5,0,0,1,-5,5h-143a5,5,0,0,1,-5,-5v-12a5,5,0,0,1,5,-5z"></path><g id="node_text20" fill="black"><text id="kity_text_181" text-rendering="inherit" font-size="12" dy=".8em" y="226.7000057324767" x="959.5000238493085">人人都有追求幸福的权利</text></g></g><g id="minder_node23"><g id="node_expander20" style="cursor: pointer;" display="none"><path id="kity_path_393" fill="white" stroke="gray" d="M949.5000236108899,286.5000065341592A6,6,0,1,1,937.5000236108899,286.5000065341592A6,6,0,1,1,949.5000236108899,286.5000065341592"></path><path id="kity_path_394" fill="none" stroke="gray"></path></g><path id="node_outline21" fill="none" stroke="none" d="M954.5000238493085,275.5000065341592h563a5,5,0,0,1,5,5v12a5,5,0,0,1,-5,5h-563a5,5,0,0,1,-5,-5v-12a5,5,0,0,1,5,-5z"></path><g id="node_text21" fill="black"><text id="kity_text_183" text-rendering="inherit" font-size="12" dy=".8em" y="278.7000065073371" x="959.5000238493085">在积极状态下，人体机能才可以充分发挥，而如何保持积极去追求幸福，是一门人人都必修的奇妙科学。</text></g></g><g id="minder_node24"><g id="node_expander21" style="cursor: pointer;" display="none"><path id="kity_path_396" fill="white" stroke="gray" d="M949.5000236108899,356.50000757724047A6,6,0,1,1,937.5000236108899,356.50000757724047A6,6,0,1,1,949.5000236108899,356.50000757724047"></path><path id="kity_path_397" fill="none" stroke="gray"></path></g><path id="node_outline22" fill="none" stroke="none" d="M954.5000238493085,327.50000757724047h347a5,5,0,0,1,5,5v48a5,5,0,0,1,-5,5h-347a5,5,0,0,1,-5,-5v-48a5,5,0,0,1,5,-5z" stroke-width="3"></path><g id="node_text22" fill="black"><text id="kity_text_185" text-rendering="inherit" font-size="12" dy=".8em" y="330.7000075504184" x="959.5000238493085">马斯洛需求层次理论中的设计。</text><text id="kity_text_506" text-rendering="inherit" font-size="12" dy=".8em" y="348.7000075504184" x="959.5000238493085">设计的至高境界是愉悦性，也是人类的至高需求。</text><text id="kity_text_507" text-rendering="inherit" font-size="12" dy=".8em" y="366.7000075504184" x="959.5000238493085">产品是设计师与用户的情感载体，自然少不了”情感化设计”。</text></g></g><g id="minder_node25"><g id="node_expander22" style="cursor: pointer;" display="none"><path id="kity_path_399" fill="white" stroke="gray" d="M949.5000236108899,426.50000862032175A6,6,0,1,1,937.5000236108899,426.50000862032175A6,6,0,1,1,949.5000236108899,426.50000862032175"></path><path id="kity_path_400" fill="none" stroke="gray"></path></g><path id="node_outline23" fill="none" stroke="none" d="M954.5000238493085,415.50000862032175h685a5,5,0,0,1,5,5v12a5,5,0,0,1,-5,5h-685a5,5,0,0,1,-5,-5v-12a5,5,0,0,1,5,-5z"></path><g id="node_text23" fill="black"><text id="kity_text_187" text-rendering="inherit" font-size="12" dy=".8em" y="418.70000859349966" x="959.5000238493085">成功的产品可以抓住你的注意力，注意力是一种心理能量，如果集中起来，就可以进入“心流”（Flow），沉心静气地做好事。</text></g></g><g id="minder_node26"><g id="node_expander29" style="cursor: pointer;"><path id="kity_path_420" fill="white" stroke="gray" d="M909.5000230148435,478.50000939518213A6,6,0,1,1,897.5000230148435,478.50000939518213A6,6,0,1,1,909.5000230148435,478.50000939518213"></path><path id="kity_path_421" fill="none" stroke="gray" d="M899.0000230148435,478.50000939518213L908.0000230148435,478.50000939518213"></path></g><path id="node_outline30" fill="#f2f2f2" stroke="none" d="M914.500023253262,467.50000939518213h172a5,5,0,0,1,5,5v12a5,5,0,0,1,-5,5h-172a5,5,0,0,1,-5,-5v-12a5,5,0,0,1,5,-5z"></path><g id="node_text30" fill="black"><text id="kity_text_201" text-rendering="inherit" font-size="12" dy=".8em" y="470.70000936836004" x="919.500023253262">情绪敏捷（emtional agility）</text></g></g><g id="minder_node27"><g id="node_expander24" style="cursor: pointer;" display="none"><path id="kity_path_405" fill="white" stroke="gray" d="M949.5000236108899,530.5000101700425A6,6,0,1,1,937.5000236108899,530.5000101700425A6,6,0,1,1,949.5000236108899,530.5000101700425"></path><path id="kity_path_406" fill="none" stroke="gray"></path></g><path id="node_outline25" fill="none" stroke="none" d="M954.5000238493085,519.5000101700425h335a5,5,0,0,1,5,5v12a5,5,0,0,1,-5,5h-335a5,5,0,0,1,-5,-5v-12a5,5,0,0,1,5,-5z"></path><g id="node_text25" fill="black"><text id="kity_text_191" text-rendering="inherit" font-size="12" dy=".8em" y="522.7000101432204" x="959.5000238493085">在接受刺激和做出反应之间的空间大小决定了情绪敏捷的程度</text></g></g><g id="minder_node28"><g id="node_expander25" style="cursor: pointer;" display="none"><path id="kity_path_408" fill="white" stroke="gray" d="M949.5000236108899,586.5000110045075A6,6,0,1,1,937.5000236108899,586.5000110045075A6,6,0,1,1,949.5000236108899,586.5000110045075"></path><path id="kity_path_409" fill="none" stroke="gray"></path></g><path id="node_outline26" fill="none" stroke="none" d="M954.5000242218375,571.5000110045075h240a5,5,0,0,1,5,5v20a5,5,0,0,1,-5,5h-240a5,5,0,0,1,-5,-5v-20a5,5,0,0,1,5,-5z"></path><g id="node_text26" fill="black"><text id="kity_text_193" text-rendering="inherit" font-size="12" dy=".8em" y="578.7000109776855" x="984.5000242218375">Showing Up 站出来，直面自己的情绪</text></g><g id="node_priority1"><path id="kity_path_260" fill="#840023" stroke="none" d="M960.0000238567591,590.0000108629465c0,3.866,3.134,7,7,7h6c3.866,0,7,-3.134,7,-7V584.0000108629465H960.0000238567591V590.0000108629465z"></path><path id="kity_path_261" fill="#FF1200" stroke="none" d="M980.0000238567591,587.0000108629465c0,3.866,-3.134,7,-7,7H967.0000238567591c-3.866,0,-7,-3.134,-7,-7V584.0000108629465c0,-3.866,3.134,-7,7,-7h6c3.866,0,7,3.134,7,7V587.0000108629465z" opacity="0.8"></path><text id="kity_text_262" text-rendering="geometricPrecision" x="969.0000238493085" y="586.5000108554959" text-anchor="middle" font-style="italic" font-size="12" fill="white" dy="5">1</text></g></g><g id="minder_node29"><g id="node_expander26" style="cursor: pointer;" display="none"><path id="kity_path_411" fill="white" stroke="gray" d="M949.5000236108899,646.5000118985772A6,6,0,1,1,937.5000236108899,646.5000118985772A6,6,0,1,1,949.5000236108899,646.5000118985772"></path><path id="kity_path_412" fill="none" stroke="gray"></path></g><path id="node_outline27" fill="none" stroke="none" d="M954.5000242218375,631.5000118985772h248a5,5,0,0,1,5,5v20a5,5,0,0,1,-5,5h-248a5,5,0,0,1,-5,-5v-20a5,5,0,0,1,5,-5z"></path><g id="node_text27" fill="black"><text id="kity_text_195" text-rendering="inherit" font-size="12" dy=".8em" y="638.7000118717551" x="984.5000242218375">Stepping Out 走出来，走出自己的情绪</text></g><g id="node_priority2"><path id="kity_path_265" fill="#01467F" stroke="none" d="M960.0000238567591,650.0000117570162c0,3.866,3.134,7,7,7h6c3.866,0,7,-3.134,7,-7V644.0000117570162H960.0000238567591V650.0000117570162z"></path><path id="kity_path_266" fill="#0074FF" stroke="none" d="M980.0000238567591,647.0000117570162c0,3.866,-3.134,7,-7,7H967.0000238567591c-3.866,0,-7,-3.134,-7,-7V644.0000117570162c0,-3.866,3.134,-7,7,-7h6c3.866,0,7,3.134,7,7V647.0000117570162z" opacity="0.8"></path><text id="kity_text_267" text-rendering="geometricPrecision" x="969.0000238493085" y="646.5000117495656" text-anchor="middle" font-style="italic" font-size="12" fill="white" dy="5">2</text></g></g><g id="minder_node30"><g id="node_expander27" style="cursor: pointer;" display="none"><path id="kity_path_414" fill="white" stroke="gray" d="M949.5000236108899,706.5000127926469A6,6,0,1,1,937.5000236108899,706.5000127926469A6,6,0,1,1,949.5000236108899,706.5000127926469"></path><path id="kity_path_415" fill="none" stroke="gray"></path></g><path id="node_outline28" fill="none" stroke="none" d="M954.5000242218375,691.5000127926469h272a5,5,0,0,1,5,5v20a5,5,0,0,1,-5,5h-272a5,5,0,0,1,-5,-5v-20a5,5,0,0,1,5,-5z"></path><g id="node_text28" fill="black"><text id="kity_text_197" text-rendering="inherit" font-size="12" dy=".8em" y="698.7000127658248" x="984.5000242218375">Walk Your Way 做自己，坚持自己的价值观</text></g><g id="node_priority3"><path id="kity_path_270" fill="#006300" stroke="none" d="M960.0000238567591,710.0000126510859c0,3.866,3.134,7,7,7h6c3.866,0,7,-3.134,7,-7V704.0000126510859H960.0000238567591V710.0000126510859z"></path><path id="kity_path_271" fill="#00AF00" stroke="none" d="M980.0000238567591,707.0000126510859c0,3.866,-3.134,7,-7,7H967.0000238567591c-3.866,0,-7,-3.134,-7,-7V704.0000126510859c0,-3.866,3.134,-7,7,-7h6c3.866,0,7,3.134,7,7V707.0000126510859z" opacity="0.8"></path><text id="kity_text_272" text-rendering="geometricPrecision" x="969.0000238493085" y="706.5000126436353" text-anchor="middle" font-style="italic" font-size="12" fill="white" dy="5">3</text></g></g><g id="minder_node31"><g id="node_expander28" style="cursor: pointer;" display="none"><path id="kity_path_417" fill="white" stroke="gray" d="M949.5000236108899,766.5000136867166A6,6,0,1,1,937.5000236108899,766.5000136867166A6,6,0,1,1,949.5000236108899,766.5000136867166"></path><path id="kity_path_418" fill="none" stroke="gray"></path></g><path id="node_outline29" fill="none" stroke="none" d="M954.5000242218375,751.5000136867166h260a5,5,0,0,1,5,5v20a5,5,0,0,1,-5,5h-260a5,5,0,0,1,-5,-5v-20a5,5,0,0,1,5,-5z"></path><g id="node_text29" fill="black"><text id="kity_text_199" text-rendering="inherit" font-size="12" dy=".8em" y="758.7000136598945" x="984.5000242218375">Moving On 在这个操蛋的世界上尽情奔跑</text></g><g id="node_priority4"><path id="kity_path_275" fill="#B25000" stroke="none" d="M960.0000238567591,770.0000135451555c0,3.866,3.134,7,7,7h6c3.866,0,7,-3.134,7,-7V764.0000135451555H960.0000238567591V770.0000135451555z"></path><path id="kity_path_276" fill="#FF962E" stroke="none" d="M980.0000238567591,767.0000135451555c0,3.866,-3.134,7,-7,7H967.0000238567591c-3.866,0,-7,-3.134,-7,-7V764.0000135451555c0,-3.866,3.134,-7,7,-7h6c3.866,0,7,3.134,7,7V767.0000135451555z" opacity="0.8"></path><text id="kity_text_277" text-rendering="geometricPrecision" x="969.0000238493085" y="766.500013537705" text-anchor="middle" font-style="italic" font-size="12" fill="white" dy="5">4</text></g></g><g id="minder_node32"><g id="node_expander32" style="cursor: pointer;"><path id="kity_path_429" fill="white" stroke="gray" d="M909.5000230148435,822.5000145211816A6,6,0,1,1,897.5000230148435,822.5000145211816A6,6,0,1,1,909.5000230148435,822.5000145211816"></path><path id="kity_path_430" fill="none" stroke="gray" d="M899.0000230148435,822.5000145211816L908.0000230148435,822.5000145211816"></path></g><path id="node_outline33" fill="#f2f2f2" stroke="none" d="M914.500023253262,811.5000145211816h60a5,5,0,0,1,5,5v12a5,5,0,0,1,-5,5h-60a5,5,0,0,1,-5,-5v-12a5,5,0,0,1,5,-5z"></path><g id="node_text33" fill="black"><text id="kity_text_207" text-rendering="inherit" font-size="12" dy=".8em" y="814.7000144943595" x="919.500023253262">情绪暴政</text></g></g><g id="minder_node33"><g id="node_expander30" style="cursor: pointer;" display="none"><path id="kity_path_423" fill="white" stroke="gray" d="M949.5000236108899,874.500015296042A6,6,0,1,1,937.5000236108899,874.500015296042A6,6,0,1,1,949.5000236108899,874.500015296042"></path><path id="kity_path_424" fill="none" stroke="gray"></path></g><path id="node_outline31" fill="none" stroke="none" d="M954.5000238493085,863.500015296042h396a5,5,0,0,1,5,5v12a5,5,0,0,1,-5,5h-396a5,5,0,0,1,-5,-5v-12a5,5,0,0,1,5,-5z"></path><g id="node_text31" fill="black"><text id="kity_text_203" text-rendering="inherit" font-size="12" dy=".8em" y="866.7000152692199" x="959.5000238493085">我们活在乐观主义的暴政当中，笑好哭坏，只能笑不能苦，最终哭笑不得</text></g></g><g id="minder_node34"><g id="node_expander31" style="cursor: pointer;" display="none"><path id="kity_path_426" fill="white" stroke="gray" d="M949.5000236108899,926.5000160709023A6,6,0,1,1,937.5000236108899,926.5000160709023A6,6,0,1,1,949.5000236108899,926.5000160709023"></path><path id="kity_path_427" fill="none" stroke="gray"></path></g><path id="node_outline32" fill="none" stroke="none" d="M954.5000238493085,915.5000160709023h143a5,5,0,0,1,5,5v12a5,5,0,0,1,-5,5h-143a5,5,0,0,1,-5,-5v-12a5,5,0,0,1,5,-5z"></path><g id="node_text32" fill="black"><text id="kity_text_205" text-rendering="inherit" font-size="12" dy=".8em" y="918.7000160440803" x="959.5000238493085">情绪需要合理地自由发泄</text></g></g><g id="minder_node35"><g id="node_expander47" style="cursor: pointer;"><path id="kity_path_474" fill="white" stroke="gray" d="M1746.5000354871154,103.50000380724669A6,6,0,1,1,1734.5000354871154,103.50000380724669A6,6,0,1,1,1746.5000354871154,103.50000380724669"></path><path id="kity_path_475" fill="none" stroke="gray" d="M1736.0000354871154,103.50000380724669L1745.0000354871154,103.50000380724669"></path></g><path id="node_outline48" fill="rgb(238, 243, 246)" stroke="rgb(115, 161, 191)" d="M1687.5000349506736,110.50000410526991h106a3,3,0,0,1,3,3v20a3,3,0,0,1,-3,3h-106a3,3,0,0,1,-3,-3v-20a3,3,0,0,1,3,-3z" stroke-width="1"></path><g id="node_text48" fill="black"><text id="kity_text_237" text-rendering="inherit" font-size="14" dy=".8em" y="114.40000407397747" x="1704.5000349506736">数据的力量</text></g></g><g id="minder_node36"><g id="node_expander37" style="cursor: pointer;"><path id="kity_path_444" fill="white" stroke="gray" d="M1724.5000351592898,182.50000498443842A6,6,0,1,1,1712.5000351592898,182.50000498443842A6,6,0,1,1,1724.5000351592898,182.50000498443842"></path><path id="kity_path_445" fill="none" stroke="gray" d="M1714.0000351592898,182.50000498443842L1723.0000351592898,182.50000498443842"></path></g><path id="node_outline38" fill="#f2f2f2" stroke="none" d="M1729.5000353977084,171.50000498443842h177a5,5,0,0,1,5,5v12a5,5,0,0,1,-5,5h-177a5,5,0,0,1,-5,-5v-12a5,5,0,0,1,5,-5z"></path><g id="node_text38" fill="black"><text id="kity_text_217" text-rendering="inherit" font-size="12" dy=".8em" y="174.70000495761633" x="1734.5000353977084">数据面包屑（digital crumbs）</text></g></g><g id="minder_node37"><g id="node_expander34" style="cursor: pointer;" display="none"><path id="kity_path_435" fill="white" stroke="gray" d="M1764.5000357553363,234.5000057592988A6,6,0,1,1,1752.5000357553363,234.5000057592988A6,6,0,1,1,1764.5000357553363,234.5000057592988"></path><path id="kity_path_436" fill="none" stroke="gray"></path></g><path id="node_outline35" fill="none" stroke="none" d="M1769.5000359937549,223.5000057592988h216a5,5,0,0,1,5,5v12a5,5,0,0,1,-5,5h-216a5,5,0,0,1,-5,-5v-12a5,5,0,0,1,5,-5z"></path><g id="node_text35" fill="black"><text id="kity_text_211" text-rendering="inherit" font-size="12" dy=".8em" y="226.7000057324767" x="1774.5000359937549">数据屑无处不在，无所不有，数不胜数</text></g></g><g id="minder_node38"><g id="node_expander35" style="cursor: pointer;" display="none"><path id="kity_path_438" fill="white" stroke="gray" d="M1764.5000357553363,286.5000065341592A6,6,0,1,1,1752.5000357553363,286.5000065341592A6,6,0,1,1,1764.5000357553363,286.5000065341592"></path><path id="kity_path_439" fill="none" stroke="gray"></path></g><path id="node_outline36" fill="none" stroke="none" d="M1769.5000359937549,275.5000065341592h180a5,5,0,0,1,5,5v12a5,5,0,0,1,-5,5h-180a5,5,0,0,1,-5,-5v-12a5,5,0,0,1,5,-5z"></path><g id="node_text36" fill="black"><text id="kity_text_213" text-rendering="inherit" font-size="12" dy=".8em" y="278.7000065073371" x="1774.5000359937549">服务商收集数据屑来“监视”你</text></g></g><g id="minder_node39"><g id="node_expander36" style="cursor: pointer;" display="none"><path id="kity_path_441" fill="white" stroke="gray" d="M1764.5000357553363,338.50000730901957A6,6,0,1,1,1752.5000357553363,338.50000730901957A6,6,0,1,1,1764.5000357553363,338.50000730901957"></path><path id="kity_path_442" fill="none" stroke="gray"></path></g><path id="node_outline37" fill="none" stroke="none" d="M1769.5000359937549,327.50000730901957h227a5,5,0,0,1,5,5v12a5,5,0,0,1,-5,5h-227a5,5,0,0,1,-5,-5v-12a5,5,0,0,1,5,-5z"></path><g id="node_text37" fill="black"><text id="kity_text_215" text-rendering="inherit" font-size="12" dy=".8em" y="330.7000072821975" x="1774.5000359937549">无法来无影去无踪，就不要留下任何把柄</text></g></g><g id="minder_node40"><g id="node_expander41" style="cursor: pointer;"><path id="kity_path_456" fill="white" stroke="gray" d="M1724.5000351592898,390.50000808387995A6,6,0,1,1,1712.5000351592898,390.50000808387995A6,6,0,1,1,1724.5000351592898,390.50000808387995"></path><path id="kity_path_457" fill="none" stroke="gray" d="M1714.0000351592898,390.50000808387995L1723.0000351592898,390.50000808387995"></path></g><path id="node_outline42" fill="#f2f2f2" stroke="none" d="M1729.5000353977084,379.50000808387995h141a5,5,0,0,1,5,5v12a5,5,0,0,1,-5,5h-141a5,5,0,0,1,-5,-5v-12a5,5,0,0,1,5,-5z"></path><g id="node_text42" fill="black"><text id="kity_text_225" text-rendering="inherit" font-size="12" dy=".8em" y="382.70000805705786" x="1734.5000353977084">信息泡（filter bubble）</text></g></g><g id="minder_node41"><g id="node_expander38" style="cursor: pointer;" display="none"><path id="kity_path_447" fill="white" stroke="gray" d="M1764.5000357553363,442.50000885874033A6,6,0,1,1,1752.5000357553363,442.50000885874033A6,6,0,1,1,1764.5000357553363,442.50000885874033"></path><path id="kity_path_448" fill="none" stroke="gray"></path></g><path id="node_outline39" fill="none" stroke="none" d="M1769.5000359937549,431.50000885874033h598a5,5,0,0,1,5,5v12a5,5,0,0,1,-5,5h-598a5,5,0,0,1,-5,-5v-12a5,5,0,0,1,5,-5z"></path><g id="node_text39" fill="black"><text id="kity_text_219" text-rendering="inherit" font-size="12" dy=".8em" y="434.70000883191824" x="1774.5000359937549">当我们接受到的信息都是符合我们期望、没有异见的时候，我们忽略掉了其他的声音，往往会导致偏见的产生。</text></g></g><g id="minder_node42"><g id="node_expander39" style="cursor: pointer;" display="none"><path id="kity_path_450" fill="white" stroke="gray" d="M1764.5000357553363,494.5000096336007A6,6,0,1,1,1752.5000357553363,494.5000096336007A6,6,0,1,1,1764.5000357553363,494.5000096336007"></path><path id="kity_path_451" fill="none" stroke="gray"></path></g><path id="node_outline40" fill="none" stroke="none" d="M1769.5000359937549,483.5000096336007h479a5,5,0,0,1,5,5v12a5,5,0,0,1,-5,5h-479a5,5,0,0,1,-5,-5v-12a5,5,0,0,1,5,-5z"></path><g id="node_text40" fill="black"><text id="kity_text_221" text-rendering="inherit" font-size="12" dy=".8em" y="486.7000096067786" x="1774.5000359937549">我们没有意识到自己看到的是被过滤后的东西，从而以为呈现在眼前的就是真实的现实。</text></g></g><g id="minder_node43"><g id="node_expander40" style="cursor: pointer;" display="none"><path id="kity_path_453" fill="white" stroke="gray" d="M1764.5000357553363,546.5000104084611A6,6,0,1,1,1752.5000357553363,546.5000104084611A6,6,0,1,1,1764.5000357553363,546.5000104084611"></path><path id="kity_path_454" fill="none" stroke="gray"></path></g><path id="node_outline41" fill="none" stroke="none" d="M1769.5000359937549,535.5000104084611h430a5,5,0,0,1,5,5v12a5,5,0,0,1,-5,5h-430a5,5,0,0,1,-5,-5v-12a5,5,0,0,1,5,-5z"></path><g id="node_text41" fill="black"><text id="kity_text_223" text-rendering="inherit" font-size="12" dy=".8em" y="538.700010381639" x="1774.5000359937549">用过滤气泡画地为牢，自己把自己包围了。最后只能坐井观天，成为井底之蛙。</text></g></g><g id="minder_node44"><g id="node_expander44" style="cursor: pointer;"><path id="kity_path_465" fill="white" stroke="gray" d="M1724.5000351592898,598.5000111833215A6,6,0,1,1,1712.5000351592898,598.5000111833215A6,6,0,1,1,1724.5000351592898,598.5000111833215"></path><path id="kity_path_466" fill="none" stroke="gray" d="M1714.0000351592898,598.5000111833215L1723.0000351592898,598.5000111833215"></path></g><path id="node_outline45" fill="#f2f2f2" stroke="none" d="M1729.5000353977084,587.5000111833215h172a5,5,0,0,1,5,5v12a5,5,0,0,1,-5,5h-172a5,5,0,0,1,-5,-5v-12a5,5,0,0,1,5,-5z"></path><g id="node_text45" fill="black"><text id="kity_text_231" text-rendering="inherit" font-size="12" dy=".8em" y="590.7000111564994" x="1734.5000353977084">人本数据（data humanism）</text></g></g><g id="minder_node45"><g id="node_expander42" style="cursor: pointer;" display="none"><path id="kity_path_459" fill="white" stroke="gray" d="M1764.5000357553363,650.5000119581819A6,6,0,1,1,1752.5000357553363,650.5000119581819A6,6,0,1,1,1764.5000357553363,650.5000119581819"></path><path id="kity_path_460" fill="none" stroke="gray"></path></g><path id="node_outline43" fill="none" stroke="none" d="M1769.5000359937549,639.5000119581819h372a5,5,0,0,1,5,5v12a5,5,0,0,1,-5,5h-372a5,5,0,0,1,-5,-5v-12a5,5,0,0,1,5,-5z"></path><g id="node_text43" fill="black"><text id="kity_text_227" text-rendering="inherit" font-size="12" dy=".8em" y="642.7000119313598" x="1774.5000359937549">每个人都将能享受到大数据带来的便利，注重个性化却忽视了人性化</text></g></g><g id="minder_node46"><g id="node_expander43" style="cursor: pointer;" display="none"><path id="kity_path_462" fill="white" stroke="gray" d="M1764.5000357553363,702.5000127330422A6,6,0,1,1,1752.5000357553363,702.5000127330422A6,6,0,1,1,1764.5000357553363,702.5000127330422"></path><path id="kity_path_463" fill="none" stroke="gray"></path></g><path id="node_outline44" fill="none" stroke="none" d="M1769.5000359937549,691.5000127330422h491a5,5,0,0,1,5,5v12a5,5,0,0,1,-5,5h-491a5,5,0,0,1,-5,-5v-12a5,5,0,0,1,5,-5z"></path><g id="node_text44" fill="black"><text id="kity_text_229" text-rendering="inherit" font-size="12" dy=".8em" y="694.7000127062201" x="1774.5000359937549">服务商吃掉的是用户的注意力，与其说是提高用户的效率，不如说是提高平台盈利的效率。</text></g></g><g id="minder_node47"><g id="node_expander46" style="cursor: pointer;"><path id="kity_path_471" fill="white" stroke="gray" d="M1724.5000351592898,754.5000135079026A6,6,0,1,1,1712.5000351592898,754.5000135079026A6,6,0,1,1,1724.5000351592898,754.5000135079026"></path><path id="kity_path_472" fill="none" stroke="gray" d="M1714.0000351592898,754.5000135079026L1723.0000351592898,754.5000135079026"></path></g><path id="node_outline47" fill="none" stroke="none" d="M1729.5000353977084,743.5000135079026h60a5,5,0,0,1,5,5v12a5,5,0,0,1,-5,5h-60a5,5,0,0,1,-5,-5v-12a5,5,0,0,1,5,-5z"></path><g id="node_text47" fill="black"><text id="kity_text_235" text-rendering="inherit" font-size="12" dy=".8em" y="746.7000134810805" x="1734.5000353977084">情感数据</text></g></g><g id="minder_node48"><g id="node_expander45" style="cursor: pointer;" display="none"><path id="kity_path_468" fill="white" stroke="gray" d="M1764.5000357553363,806.500014282763A6,6,0,1,1,1752.5000357553363,806.500014282763A6,6,0,1,1,1764.5000357553363,806.500014282763"></path><path id="kity_path_469" fill="none" stroke="gray"></path></g><path id="node_outline46" fill="none" stroke="none" d="M1769.5000359937549,795.500014282763h395a5,5,0,0,1,5,5v12a5,5,0,0,1,-5,5h-395a5,5,0,0,1,-5,-5v-12a5,5,0,0,1,5,-5z"></path><g id="node_text46" fill="black"><text id="kity_text_233" text-rendering="inherit" font-size="12" dy=".8em" y="798.7000142559409" x="1774.5000359937549">我们玩弄数据的终极目的是更好地传达信息，甚至是传达信息中的情感。</text></g></g><g id="minder_node49"><g id="node_expander57" style="cursor: pointer;"><path id="kity_path_504" fill="white" stroke="gray" d="M2474.00004632771,103.50000380724669A6,6,0,1,1,2462.00004632771,103.50000380724669A6,6,0,1,1,2474.00004632771,103.50000380724669"></path><path id="kity_path_505" fill="none" stroke="gray" d="M2463.50004632771,103.50000380724669L2472.50004632771,103.50000380724669"></path></g><path id="node_outline58" fill="rgb(238, 243, 246)" stroke="rgb(115, 161, 191)" d="M2415.500045798719,110.50000410526991h105a3,3,0,0,1,3,3v20a3,3,0,0,1,-3,3h-105a3,3,0,0,1,-3,-3v-20a3,3,0,0,1,3,-3z" stroke-width="1"></path><g id="node_text58" fill="black"><text id="kity_text_257" text-rendering="inherit" font-size="14" dy=".8em" y="114.40000407397747" x="2432.500045798719">编程的误区</text></g></g><g id="minder_node50"><g id="node_expander51" style="cursor: pointer;"><path id="kity_path_486" fill="white" stroke="gray" d="M2452.500046007335,182.50000498443842A6,6,0,1,1,2440.500046007335,182.50000498443842A6,6,0,1,1,2452.500046007335,182.50000498443842"></path><path id="kity_path_487" fill="none" stroke="gray" d="M2442.000046007335,182.50000498443842L2451.000046007335,182.50000498443842"></path></g><path id="node_outline52" fill="#f2f2f2" stroke="none" d="M2457.5000462457538,171.50000498443842h60a5,5,0,0,1,5,5v12a5,5,0,0,1,-5,5h-60a5,5,0,0,1,-5,-5v-12a5,5,0,0,1,5,-5z"></path><g id="node_text52" fill="black"><text id="kity_text_245" text-rendering="inherit" font-size="12" dy=".8em" y="174.70000495761633" x="2462.5000462457538">性别问题</text></g></g><g id="minder_node51"><g id="node_expander48" style="cursor: pointer;" display="none"><path id="kity_path_477" fill="white" stroke="gray" d="M2492.5000466033816,234.5000057592988A6,6,0,1,1,2480.5000466033816,234.5000057592988A6,6,0,1,1,2492.5000466033816,234.5000057592988"></path><path id="kity_path_478" fill="none" stroke="gray"></path></g><path id="node_outline49" fill="none" stroke="none" d="M2497.5000468418,223.5000057592988h406a5,5,0,0,1,5,5v12a5,5,0,0,1,-5,5h-406a5,5,0,0,1,-5,-5v-12a5,5,0,0,1,5,-5z"></path><g id="node_text49" fill="black"><text id="kity_text_239" text-rendering="inherit" font-size="12" dy=".8em" y="226.7000057324767" x="2502.5000468418">男性主导编程：计算机是男人的世界，在如今几乎可以算是社会的共识了。</text></g></g><g id="minder_node52"><g id="node_expander49" style="cursor: pointer;" display="none"><path id="kity_path_480" fill="white" stroke="gray" d="M2492.5000466033816,286.5000065341592A6,6,0,1,1,2480.5000466033816,286.5000065341592A6,6,0,1,1,2492.5000466033816,286.5000065341592"></path><path id="kity_path_481" fill="none" stroke="gray"></path></g><path id="node_outline50" fill="none" stroke="none" d="M2497.5000468418,275.5000065341592h108a5,5,0,0,1,5,5v12a5,5,0,0,1,-5,5h-108a5,5,0,0,1,-5,-5v-12a5,5,0,0,1,5,-5z"></path><g id="node_text50" fill="black"><text id="kity_text_241" text-rendering="inherit" font-size="12" dy=".8em" y="278.7000065073371" x="2502.5000468418">女性曾经主导编程</text></g></g><g id="minder_node53"><g id="node_expander50" style="cursor: pointer;" display="none"><path id="kity_path_483" fill="white" stroke="gray" d="M2492.5000466033816,338.50000730901957A6,6,0,1,1,2480.5000466033816,338.50000730901957A6,6,0,1,1,2492.5000466033816,338.50000730901957"></path><path id="kity_path_484" fill="none" stroke="gray"></path></g><path id="node_outline51" fill="none" stroke="none" d="M2497.5000468418,327.50000730901957h335a5,5,0,0,1,5,5v12a5,5,0,0,1,-5,5h-335a5,5,0,0,1,-5,-5v-12a5,5,0,0,1,5,-5z"></path><g id="node_text51" fill="black"><text id="kity_text_243" text-rendering="inherit" font-size="12" dy=".8em" y="330.7000072821975" x="2502.5000468418">编程无分男女，人人都可以通过编程去创造一个更好的世界。</text></g></g><g id="minder_node54"><g id="node_expander54" style="cursor: pointer;"><path id="kity_path_495" fill="white" stroke="gray" d="M2452.500046007335,390.50000808387995A6,6,0,1,1,2440.500046007335,390.50000808387995A6,6,0,1,1,2452.500046007335,390.50000808387995"></path><path id="kity_path_496" fill="none" stroke="gray" d="M2442.000046007335,390.50000808387995L2451.000046007335,390.50000808387995"></path></g><path id="node_outline55" fill="#f2f2f2" stroke="none" d="M2457.5000462457538,379.50000808387995h216a5,5,0,0,1,5,5v12a5,5,0,0,1,-5,5h-216a5,5,0,0,1,-5,-5v-12a5,5,0,0,1,5,-5z"></path><g id="node_text55" fill="black"><text id="kity_text_251" text-rendering="inherit" font-size="12" dy=".8em" y="382.70000805705786" x="2462.5000462457538">科技平权尚未成功，社会偏见仍未打破</text></g></g><g id="minder_node55"><g id="node_expander52" style="cursor: pointer;" display="none"><path id="kity_path_489" fill="white" stroke="gray" d="M2492.5000466033816,442.50000885874033A6,6,0,1,1,2480.5000466033816,442.50000885874033A6,6,0,1,1,2492.5000466033816,442.50000885874033"></path><path id="kity_path_490" fill="none" stroke="gray"></path></g><path id="node_outline53" fill="none" stroke="none" d="M2497.5000468418,431.50000885874033h587a5,5,0,0,1,5,5v12a5,5,0,0,1,-5,5h-587a5,5,0,0,1,-5,-5v-12a5,5,0,0,1,5,-5z"></path><g id="node_text53" fill="black"><text id="kity_text_247" text-rendering="inherit" font-size="12" dy=".8em" y="434.70000883191824" x="2502.5000468418">更难做到的是打破的是社会大众的偏见和男性的傲慢，性别刻板印象和歧视的阴霾还在科技行业内挥之不去。</text></g></g><g id="minder_node56"><g id="node_expander53" style="cursor: pointer;" display="none"><path id="kity_path_492" fill="white" stroke="gray" d="M2492.5000466033816,494.5000096336007A6,6,0,1,1,2480.5000466033816,494.5000096336007A6,6,0,1,1,2492.5000466033816,494.5000096336007"></path><path id="kity_path_493" fill="none" stroke="gray"></path></g><path id="node_outline54" fill="none" stroke="none" d="M2497.5000468418,483.5000096336007h611a5,5,0,0,1,5,5v12a5,5,0,0,1,-5,5h-611a5,5,0,0,1,-5,-5v-12a5,5,0,0,1,5,-5z"></path><g id="node_text54" fill="black"><text id="kity_text_249" text-rendering="inherit" font-size="12" dy=".8em" y="486.7000096067786" x="2502.5000468418">我们需要的不是互联网公司们“勉为其难、华而不实”地扩大女性占比，我们真正需要的是消除社会的性别偏见。</text></g></g><g id="minder_node57"><g id="node_expander56" style="cursor: pointer;"><path id="kity_path_501" fill="white" stroke="gray" d="M2452.500046007335,546.5000104084611A6,6,0,1,1,2440.500046007335,546.5000104084611A6,6,0,1,1,2452.500046007335,546.5000104084611"></path><path id="kity_path_502" fill="none" stroke="gray" d="M2442.000046007335,546.5000104084611L2451.000046007335,546.5000104084611"></path></g><path id="node_outline57" fill="none" stroke="none" d="M2457.5000462457538,535.5000104084611h58a5,5,0,0,1,5,5v12a5,5,0,0,1,-5,5h-58a5,5,0,0,1,-5,-5v-12a5,5,0,0,1,5,-5z"></path><g id="node_text57" fill="black"><text id="kity_text_255" text-rendering="inherit" font-size="12" dy=".8em" y="538.700010381639" x="2462.5000462457538">黑客精神</text></g></g><g id="minder_node58"><g id="node_expander55" style="cursor: pointer;" display="none"><path id="kity_path_498" fill="white" stroke="gray" d="M2492.5000466033816,598.5000111833215A6,6,0,1,1,2480.5000466033816,598.5000111833215A6,6,0,1,1,2492.5000466033816,598.5000111833215"></path><path id="kity_path_499" fill="none" stroke="gray"></path></g><path id="node_outline56" fill="none" stroke="none" d="M2497.5000468418,587.5000111833215h394a5,5,0,0,1,5,5v12a5,5,0,0,1,-5,5h-394a5,5,0,0,1,-5,-5v-12a5,5,0,0,1,5,-5z"></path><g id="node_text56" fill="black"><text id="kity_text_253" text-rendering="inherit" font-size="12" dy=".8em" y="590.7000111564994" x="2502.5000468418">黑客精神不是破坏，而是分享、开放、民主、计算机的自由使用、进步。</text></g></g></g></g></svg>